# xmcd
#
# Track frame offsets:
#	150
#	12100
#	31400
#	42562
#	54980
#	67417
#	83495
#	94290
#	107715
#	118455
#	129562
#	140700
#	151192
#	163122
#	178010
#	189200
#	203170
#	216645
#	228362
#	248095
#	259665
#	270802
#
# Disc length: 3806
#
# Revision: 1
# Processed by: cddbd v1.5.1PL0 Copyright (c) Steve Scherf et al.
# Submitted via: VisiTrax 2.9.2.167 - For more info visit www.synapsa.com
# Normalized: r0:DSETVAR1
#
DISCID=3c0edc16
DTITLE=Various Artist - Country Collection
DYEAR=1900
DGENRE=
TTITLE0=Tennessee Ernie Ford - Sixteen Tons
TTITLE1=Bobbie Gentry - Ode to Billy Joe
TTITLE2=The Everly Brothers - Take a message to Mary
TTITLE3=Merle Haggard - Okie from Muskogie
TTITLE4=Patsy Cline - Crazy
TTITLE5=Willie Nelson - Always on my Mind
TTITLE6=Jim Reeves - You're the only good thing that's happened to me
TTITLE7=Jim Reeves - Funny, Familiar, Forgotten Feelings
TTITLE8=Slim Whitman - Tumbling Tumbleweeds
TTITLE9=Frankie Laine - High Noon (Do not forsake me)
TTITLE10=Glen Campbell - It's Only Make Believe
TTITLE11=Frank Ifield - Lovesick Blues
TTITLE12=Dolly Parton - Nine to Five
TTITLE13=Bellamy Brothers - Let your Love Flow
TTITLE14=Roger Miller - King of the road
TTITLE15=Glen Campbell - Wichita Lineman
TTITLE16=Frankie Laine - Cool Water
TTITLE17=Jim Reeves - Welcome to My World
TTITLE18=Marty Robbins - El Paso
TTITLE19=Connie Francis - My Heart Has A Mind of Its Own
TTITLE20=Guy Mitchell - Singing the Blues
TTITLE21=Lena Martell - One Day at a Time: Yes! That Song
EXTD=Data by Phil Taylor - Island of Jersey
EXTT0=
EXTT1=
EXTT2=
EXTT3=
EXTT4=
EXTT5=
EXTT6=
EXTT7=
EXTT8=
EXTT9=
EXTT10=
EXTT11=
EXTT12=
EXTT13=
EXTT14=
EXTT15=
EXTT16=
EXTT17=
EXTT18=
EXTT19=
EXTT20=
EXTT21=
PLAYORDER=
